{
    "asset": {
        "generator": "Khronos glTF Blender I/O v1.5.17",
        "version": "2.0"
    },
    "scene": 0,
    "scenes": [
        {
            "name": "Scene",
            "nodes": [
                3
            ]
        }
    ],
    "nodes": [
        {
            "mesh": 0,
            "name": "Aperture.Blade.01",
            "scale": [
                0.4954940974712372,
                0.4954940676689148,
                0.4954940974712372
            ],
            "translation": [
                -0.000645465450361371,
                -0.5788827538490295,
                0.00027450890047475696
            ]
        },
        {
            "mesh": 1,
            "name": "Head"
        },
        {
            "mesh": 2,
            "name": "Head.001",
            "scale": [
                -1.473020315170288,
                -1.473020315170288,
                -1.4730201959609985
            ],
            "translation": [
                -0.0012952694669365883,
                -1.5418906211853027,
                -0.0003347317106090486
            ]
        },
        {
            "children": [
                0,
                1,
                2
            ],
            "mesh": 3,
            "name": "Head.002",
            "scale": [
                0.577946126461029,
                0.578106164932251,
                0.5780051946640015
            ],
            "translation": [
                0,
                -0.006229998543858528,
                0
            ]
        }
    ],
    "materials": [
        {
            "doubleSided": false,
            "name": "Material.002",
            "pbrMetallicRoughness": {
                "baseColorFactor": [
                    0.025391871109604836,
                    0.025391871109604836,
                    0.025391871109604836,
                    1
                ],
                "metallicFactor": 1,
                "roughnessFactor": 0.5
            }
        },
        {
            "doubleSided": false,
            "emissiveFactor": [
                1,
                1,
                1
            ],
            "name": "Material.003",
            "pbrMetallicRoughness": {}
        },
        {
            "doubleSided": false,
            "name": "Material",
            "pbrMetallicRoughness": {
                "baseColorFactor": [
                    1,
                    1,
                    1,
                    1
                ],
                "metallicFactor": 1,
                "roughnessFactor": 0.20000000298023224
            }
        }
    ],
    "meshes": [
        {
            "name": "Mesh.001",
            "primitives": [
                {
                    "attributes": {
                        "POSITION": 0,
                        "NORMAL": 1
                    },
                    "indices": 2,
                    "material": 0
                }
            ]
        },
        {
            "name": "Cube",
            "primitives": [
                {
                    "attributes": {
                        "POSITION": 3,
                        "NORMAL": 4
                    },
                    "indices": 5,
                    "material": 0
                },
                {
                    "attributes": {
                        "POSITION": 6,
                        "NORMAL": 7
                    },
                    "indices": 8,
                    "material": 1
                }
            ]
        },
        {
            "name": "Cube.001",
            "primitives": [
                {
                    "attributes": {
                        "POSITION": 9,
                        "NORMAL": 10
                    },
                    "indices": 11,
                    "material": 0
                }
            ]
        },
        {
            "name": "Cube.002",
            "primitives": [
                {
                    "attributes": {
                        "POSITION": 12,
                        "NORMAL": 13,
                        "TANGENT": 14,
                        "TEXCOORD_0": 15
                    },
                    "indices": 16,
                    "material": 2
                },
                {
                    "attributes": {
                        "POSITION": 17,
                        "NORMAL": 18,
                        "TANGENT": 19,
                        "TEXCOORD_0": 20
                    },
                    "indices": 21,
                    "material": 0
                }
            ]
        }
    ],
    "accessors": [
        {
            "bufferView": 0,
            "componentType": 5126,
            "count": 5072,
            "max": [
                0.1872073858976364,
                0.010483460500836372,
                0.18720735609531403
            ],
            "min": [
                -0.18720735609531403,
                9.661859076004475e-05,
                -0.18720735609531403
            ],
            "type": "VEC3"
        },
        {
            "bufferView": 1,
            "componentType": 5126,
            "count": 5072,
            "type": "VEC3"
        },
        {
            "bufferView": 2,
            "componentType": 5123,
            "count": 30336,
            "type": "SCALAR"
        },
        {
            "bufferView": 3,
            "componentType": 5126,
            "count": 4224,
            "max": [
                0.32602745294570923,
                -0.5589205622673035,
                0.32602739334106445
            ],
            "min": [
                -0.32602745294570923,
                -0.8096522092819214,
                -0.32602745294570923
            ],
            "type": "VEC3"
        },
        {
            "bufferView": 4,
            "componentType": 5126,
            "count": 4224,
            "type": "VEC3"
        },
        {
            "bufferView": 5,
            "componentType": 5123,
            "count": 17856,
            "type": "SCALAR"
        },
        {
            "bufferView": 6,
            "componentType": 5126,
            "count": 193,
            "max": [
                0.03137626498937607,
                -0.5638056397438049,
                0.031376346945762634
            ],
            "min": [
                -0.03137626498937607,
                -0.5729042887687683,
                -0.031376346945762634
            ],
            "type": "VEC3"
        },
        {
            "bufferView": 7,
            "componentType": 5126,
            "count": 193,
            "type": "VEC3"
        },
        {
            "bufferView": 8,
            "componentType": 5123,
            "count": 1008,
            "type": "SCALAR"
        },
        {
            "bufferView": 9,
            "componentType": 5126,
            "count": 384,
            "max": [
                0.13157573342323303,
                -0.5927221775054932,
                0.13157567381858826
            ],
            "min": [
                -0.13157573342323303,
                -0.6075039505958557,
                -0.13157576322555542
            ],
            "type": "VEC3"
        },
        {
            "bufferView": 10,
            "componentType": 5126,
            "count": 384,
            "type": "VEC3"
        },
        {
            "bufferView": 11,
            "componentType": 5123,
            "count": 2304,
            "type": "SCALAR"
        },
        {
            "bufferView": 12,
            "componentType": 5126,
            "count": 21546,
            "max": [
                0.85713130235672,
                0.8737961053848267,
                0.864041805267334
            ],
            "min": [
                -0.85713130235672,
                -0.7910195589065552,
                -0.8660464286804199
            ],
            "type": "VEC3"
        },
        {
            "bufferView": 13,
            "componentType": 5126,
            "count": 21546,
            "type": "VEC3"
        },
        {
            "bufferView": 14,
            "componentType": 5126,
            "count": 21546,
            "type": "VEC4"
        },
        {
            "bufferView": 15,
            "componentType": 5126,
            "count": 21546,
            "type": "VEC2"
        },
        {
            "bufferView": 16,
            "componentType": 5123,
            "count": 112896,
            "type": "SCALAR"
        },
        {
            "bufferView": 17,
            "componentType": 5126,
            "count": 998,
            "max": [
                0.5149121284484863,
                -0.6644619703292847,
                0.5149121880531311
            ],
            "min": [
                -0.5149121284484863,
                -0.7919983267784119,
                -0.5149121880531311
            ],
            "type": "VEC3"
        },
        {
            "bufferView": 18,
            "componentType": 5126,
            "count": 998,
            "type": "VEC3"
        },
        {
            "bufferView": 19,
            "componentType": 5126,
            "count": 998,
            "type": "VEC4"
        },
        {
            "bufferView": 20,
            "componentType": 5126,
            "count": 998,
            "type": "VEC2"
        },
        {
            "bufferView": 21,
            "componentType": 5123,
            "count": 4608,
            "type": "SCALAR"
        }
    ],
    "bufferViews": [
        {
            "buffer": 0,
            "byteLength": 60864,
            "byteOffset": 0
        },
        {
            "buffer": 0,
            "byteLength": 60864,
            "byteOffset": 60864
        },
        {
            "buffer": 0,
            "byteLength": 60672,
            "byteOffset": 121728
        },
        {
            "buffer": 0,
            "byteLength": 50688,
            "byteOffset": 182400
        },
        {
            "buffer": 0,
            "byteLength": 50688,
            "byteOffset": 233088
        },
        {
            "buffer": 0,
            "byteLength": 35712,
            "byteOffset": 283776
        },
        {
            "buffer": 0,
            "byteLength": 2316,
            "byteOffset": 319488
        },
        {
            "buffer": 0,
            "byteLength": 2316,
            "byteOffset": 321804
        },
        {
            "buffer": 0,
            "byteLength": 2016,
            "byteOffset": 324120
        },
        {
            "buffer": 0,
            "byteLength": 4608,
            "byteOffset": 326136
        },
        {
            "buffer": 0,
            "byteLength": 4608,
            "byteOffset": 330744
        },
        {
            "buffer": 0,
            "byteLength": 4608,
            "byteOffset": 335352
        },
        {
            "buffer": 0,
            "byteLength": 258552,
            "byteOffset": 339960
        },
        {
            "buffer": 0,
            "byteLength": 258552,
            "byteOffset": 598512
        },
        {
            "buffer": 0,
            "byteLength": 344736,
            "byteOffset": 857064
        },
        {
            "buffer": 0,
            "byteLength": 172368,
            "byteOffset": 1201800
        },
        {
            "buffer": 0,
            "byteLength": 225792,
            "byteOffset": 1374168
        },
        {
            "buffer": 0,
            "byteLength": 11976,
            "byteOffset": 1599960
        },
        {
            "buffer": 0,
            "byteLength": 11976,
            "byteOffset": 1611936
        },
        {
            "buffer": 0,
            "byteLength": 15968,
            "byteOffset": 1623912
        },
        {
            "buffer": 0,
            "byteLength": 7984,
            "byteOffset": 1639880
        },
        {
            "buffer": 0,
            "byteLength": 9216,
            "byteOffset": 1647864
        }
    ],
    "buffers": [
        {
            "byteLength": 1657080,
            "uri": "DroneSphere.bin"
        }
    ],
    "extensionsUsed": [
        "BLENDER_physics",
        "PANDA3D_physics_collision_shapes"
    ]
}